<?xml version="1.0" encoding="UTF-8"?>
<svg width="26px" height="26px" viewBox="0 0 26 26" version="1.1" xmlns="http://www.w3.org/2000/svg" xmlns:xlink="http://www.w3.org/1999/xlink">
    <title>63675B79-A5A7-481C-ABAF-98E9371B453B</title>
    <g id="Page-1" stroke="none" stroke-width="1" fill="none" fill-rule="evenodd">
        <g id="Open-orders_V2.7-Copy-8" transform="translate(-534, -309)">
            <g id="Group-18" transform="translate(50, 209)">
                <g id="Group-11" transform="translate(475, 91)">
                    <g id="Group" transform="translate(9, 9)">
                        <polygon id="Path" points="0 0 26 0 26 26 0 26"></polygon>
                        <path d="M14.0833333,18.4166667 C14.0833333,20.8099006 16.0234328,22.75 18.4166667,22.75 C20.8099006,22.75 22.75,20.8099006 22.75,18.4166667 C22.75,16.0234328 20.8099006,14.0833333 18.4166667,14.0833333 C16.0234328,14.0833333 14.0833333,16.0234328 14.0833333,18.4166667" id="Path" stroke="#FFC400" stroke-width="1.5" stroke-linecap="round" stroke-linejoin="round"></path>
                        <polyline id="Path" stroke="#FFC400" stroke-width="1.5" stroke-linecap="round" stroke-linejoin="round" points="18.4166667 14.0833333 18.4166667 18.4166667 22.75 18.4166667"></polyline>
                        <path d="M13,3.25 L13,7.58333333 C13,8.18164181 13.4850249,8.66666667 14.0833333,8.66666667 L18.4166667,8.66666667" id="Path" stroke="#FFC400" stroke-width="1.5" stroke-linecap="round" stroke-linejoin="round"></path>
                        <path d="M12.4583333,22.75 L5.41666667,22.75 C4.22004971,22.75 3.25,21.7799503 3.25,20.5833333 L3.25,5.41666667 C3.25,4.22004971 4.22004971,3.25 5.41666667,3.25 L13,3.25 L18.4166667,8.66666667 L18.4166667,10.8333333 M18.4166667,14.0833333 L18.4166667,18.4166667" id="Shape" stroke="#FFC400" stroke-width="1.5" stroke-linecap="round" stroke-linejoin="round"></path>
                    </g>
                </g>
            </g>
        </g>
    </g>
</svg>