<?xml version="1.0" encoding="UTF-8"?>
<svg width="95px" height="26px" viewBox="0 0 95 26" version="1.1" xmlns="http://www.w3.org/2000/svg" xmlns:xlink="http://www.w3.org/1999/xlink">
    <title>B16D9E78-049B-40D3-9FA7-0FA7D15CC121</title>
    <g id="Page-1" stroke="none" stroke-width="1" fill="none" fill-rule="evenodd">
        <g id="Open-orders_V2.7-Copy-8" transform="translate(-50, -12)">
            <g id="Group-10" transform="translate(51, 12.64)">
                <g id="Hiring-Manager" transform="translate(0.7005, 0)" fill="#2997FF" fill-rule="nonzero">
                    <polygon id="Path" points="0 9.36 0 0.26 1.664 0.26 1.664 4.043 5.746 4.043 5.746 0.26 7.41 0.26 7.41 9.36 5.746 9.36 5.746 5.395 1.664 5.395 1.664 9.36"></polygon>
                    <path d="M10.036,1.911 C9.73266667,1.911 9.4835,1.82 9.2885,1.638 C9.0935,1.456 8.996,1.22633333 8.996,0.949 C8.996,0.671666667 9.0935,0.444166667 9.2885,0.2665 C9.4835,0.0888333333 9.73266667,0 10.036,0 C10.3393333,0 10.5885,0.0888333333 10.7835,0.2665 C10.9785,0.444166667 11.076,0.671666667 11.076,0.949 C11.076,1.22633333 10.9785,1.456 10.7835,1.638 C10.5885,1.82 10.3393333,1.911 10.036,1.911 Z M9.204,9.36 L9.204,2.912 L10.868,2.912 L10.868,9.36 L9.204,9.36 Z" id="Shape"></path>
                    <path d="M12.61,9.36 L12.61,2.912 L14.092,2.912 L14.248,4.121 C14.482,3.705 14.8005,3.3735 15.2035,3.1265 C15.6065,2.8795 16.081,2.756 16.627,2.756 L16.627,4.511 L16.159,4.511 C15.795,4.511 15.47,4.56733333 15.184,4.68 C14.898,4.79266667 14.6748333,4.98766667 14.5145,5.265 C14.3541667,5.54233333 14.274,5.928 14.274,6.422 L14.274,9.36 L12.61,9.36 Z" id="Path"></path>
                    <path d="M18.655,1.911 C18.3516667,1.911 18.1025,1.82 17.9075,1.638 C17.7125,1.456 17.615,1.22633333 17.615,0.949 C17.615,0.671666667 17.7125,0.444166667 17.9075,0.2665 C18.1025,0.0888333333 18.3516667,0 18.655,0 C18.9583333,0 19.2075,0.0888333333 19.4025,0.2665 C19.5975,0.444166667 19.695,0.671666667 19.695,0.949 C19.695,1.22633333 19.5975,1.456 19.4025,1.638 C19.2075,1.82 18.9583333,1.911 18.655,1.911 Z M17.823,9.36 L17.823,2.912 L19.487,2.912 L19.487,9.36 L17.823,9.36 Z" id="Shape"></path>
                    <path d="M21.229,9.36 L21.229,2.912 L22.698,2.912 L22.828,4.004 C23.0273333,3.62266667 23.3155,3.31933333 23.6925,3.094 C24.0695,2.86866667 24.5136667,2.756 25.025,2.756 C25.8223333,2.756 26.442,3.00733333 26.884,3.51 C27.326,4.01266667 27.547,4.74933333 27.547,5.72 L27.547,9.36 L25.883,9.36 L25.883,5.876 C25.883,5.32133333 25.7703333,4.89666667 25.545,4.602 C25.3196667,4.30733333 24.9686667,4.16 24.492,4.16 C24.024,4.16 23.6405,4.32466667 23.3415,4.654 C23.0425,4.98333333 22.893,5.44266667 22.893,6.032 L22.893,9.36 L21.229,9.36 Z" id="Path"></path>
                    <path d="M31.863,7.436 C31.551,7.436 31.2606667,7.40133333 30.992,7.332 L30.511,7.813 C30.6583333,7.891 30.8576667,7.956 31.109,8.008 C31.3603333,8.06 31.7676667,8.112 32.331,8.164 C33.189,8.242 33.813,8.44566667 34.203,8.775 C34.593,9.10433333 34.788,9.55933333 34.788,10.14 C34.788,10.5213333 34.684,10.8831667 34.476,11.2255 C34.268,11.5678333 33.9473333,11.8451667 33.514,12.0575 C33.0806667,12.2698333 32.526,12.376 31.85,12.376 C30.9313333,12.376 30.1903333,12.2048333 29.627,11.8625 C29.0636667,11.5201667 28.782,11.0066667 28.782,10.322 C28.782,9.74133333 29.0636667,9.23866667 29.627,8.814 C29.4536667,8.736 29.3041667,8.65366667 29.1785,8.567 C29.0528333,8.48033333 28.9423333,8.38933333 28.847,8.294 L28.847,7.995 L29.978,6.799 C29.4753333,6.357 29.224,5.78933333 29.224,5.096 C29.224,4.66266667 29.3301667,4.26833333 29.5425,3.913 C29.7548333,3.55766667 30.056,3.276 30.446,3.068 C30.836,2.86 31.3083333,2.756 31.863,2.756 C32.227,2.756 32.565,2.808 32.877,2.912 L35.321,2.912 L35.321,3.926 L34.216,4.004 C34.3893333,4.33333333 34.476,4.69733333 34.476,5.096 C34.476,5.52933333 34.372,5.92366667 34.164,6.279 C33.956,6.63433333 33.6548333,6.916 33.2605,7.124 C32.8661667,7.332 32.4003333,7.436 31.863,7.436 Z M31.863,6.162 C32.201,6.162 32.4805,6.071 32.7015,5.889 C32.9225,5.707 33.033,5.447 33.033,5.109 C33.033,4.771 32.9225,4.511 32.7015,4.329 C32.4805,4.147 32.201,4.056 31.863,4.056 C31.5076667,4.056 31.2216667,4.147 31.005,4.329 C30.7883333,4.511 30.68,4.771 30.68,5.109 C30.68,5.447 30.7883333,5.707 31.005,5.889 C31.2216667,6.071 31.5076667,6.162 31.863,6.162 Z M30.303,10.153 C30.303,10.4736667 30.4525,10.7141667 30.7515,10.8745 C31.0505,11.0348333 31.4166667,11.115 31.85,11.115 C32.266,11.115 32.604,11.0305 32.864,10.8615 C33.124,10.6925 33.254,10.465 33.254,10.179 C33.254,9.945 33.1695,9.75 33.0005,9.594 C32.8315,9.438 32.4956667,9.34266667 31.993,9.308 C31.6376667,9.282 31.3083333,9.243 31.005,9.191 C30.7536667,9.32966667 30.5738333,9.48133333 30.4655,9.646 C30.3571667,9.81066667 30.303,9.97966667 30.303,10.153 Z" id="Shape"></path>
                    <polygon id="Path" points="39.663 9.36 39.663 0.26 41.639 0.26 44.538 6.032 47.398 0.26 49.374 0.26 49.374 9.36 47.71 9.36 47.71 3.081 45.175 8.06 43.862 8.06 41.327 3.081 41.327 9.36"></polygon>
                    <path d="M53.326,9.516 C52.7713333,9.516 52.3163333,9.42716667 51.961,9.2495 C51.6056667,9.07183333 51.3413333,8.83566667 51.168,8.541 C50.9946667,8.24633333 50.908,7.92133333 50.908,7.566 C50.908,6.968 51.142,6.48266667 51.61,6.11 C52.078,5.73733333 52.78,5.551 53.716,5.551 L55.354,5.551 L55.354,5.395 C55.354,4.953 55.2283333,4.628 54.977,4.42 C54.7256667,4.212 54.4136667,4.108 54.041,4.108 C53.703,4.108 53.4083333,4.18816667 53.157,4.3485 C52.9056667,4.50883333 52.7496667,4.745 52.689,5.057 L51.064,5.057 C51.1073333,4.589 51.2655,4.18166667 51.5385,3.835 C51.8115,3.48833333 52.1646667,3.22183333 52.598,3.0355 C53.0313333,2.84916667 53.5166667,2.756 54.054,2.756 C54.9726667,2.756 55.6963333,2.98566667 56.225,3.445 C56.7536667,3.90433333 57.018,4.55433333 57.018,5.395 L57.018,9.36 L55.601,9.36 L55.445,8.32 C55.2543333,8.66666667 54.9878333,8.95266667 54.6455,9.178 C54.3031667,9.40333333 53.8633333,9.516 53.326,9.516 Z M53.703,8.216 C54.1796667,8.216 54.5501667,8.06 54.8145,7.748 C55.0788333,7.436 55.2456667,7.05033333 55.315,6.591 L53.898,6.591 C53.456,6.591 53.1396667,6.67116667 52.949,6.8315 C52.7583333,6.99183333 52.663,7.189 52.663,7.423 C52.663,7.67433333 52.7583333,7.86933333 52.949,8.008 C53.1396667,8.14666667 53.391,8.216 53.703,8.216 Z" id="Shape"></path>
                    <path d="M58.604,9.36 L58.604,2.912 L60.073,2.912 L60.203,4.004 C60.4023333,3.62266667 60.6905,3.31933333 61.0675,3.094 C61.4445,2.86866667 61.8886667,2.756 62.4,2.756 C63.1973333,2.756 63.817,3.00733333 64.259,3.51 C64.701,4.01266667 64.922,4.74933333 64.922,5.72 L64.922,9.36 L63.258,9.36 L63.258,5.876 C63.258,5.32133333 63.1453333,4.89666667 62.92,4.602 C62.6946667,4.30733333 62.3436667,4.16 61.867,4.16 C61.399,4.16 61.0155,4.32466667 60.7165,4.654 C60.4175,4.98333333 60.268,5.44266667 60.268,6.032 L60.268,9.36 L58.604,9.36 Z" id="Path"></path>
                    <path d="M68.731,9.516 C68.1763333,9.516 67.7213333,9.42716667 67.366,9.2495 C67.0106667,9.07183333 66.7463333,8.83566667 66.573,8.541 C66.3996667,8.24633333 66.313,7.92133333 66.313,7.566 C66.313,6.968 66.547,6.48266667 67.015,6.11 C67.483,5.73733333 68.185,5.551 69.121,5.551 L70.759,5.551 L70.759,5.395 C70.759,4.953 70.6333333,4.628 70.382,4.42 C70.1306667,4.212 69.8186667,4.108 69.446,4.108 C69.108,4.108 68.8133333,4.18816667 68.562,4.3485 C68.3106667,4.50883333 68.1546667,4.745 68.094,5.057 L66.469,5.057 C66.5123333,4.589 66.6705,4.18166667 66.9435,3.835 C67.2165,3.48833333 67.5696667,3.22183333 68.003,3.0355 C68.4363333,2.84916667 68.9216667,2.756 69.459,2.756 C70.3776667,2.756 71.1013333,2.98566667 71.63,3.445 C72.1586667,3.90433333 72.423,4.55433333 72.423,5.395 L72.423,9.36 L71.006,9.36 L70.85,8.32 C70.6593333,8.66666667 70.3928333,8.95266667 70.0505,9.178 C69.7081667,9.40333333 69.2683333,9.516 68.731,9.516 Z M69.108,8.216 C69.5846667,8.216 69.9551667,8.06 70.2195,7.748 C70.4838333,7.436 70.6506667,7.05033333 70.72,6.591 L69.303,6.591 C68.861,6.591 68.5446667,6.67116667 68.354,6.8315 C68.1633333,6.99183333 68.068,7.189 68.068,7.423 C68.068,7.67433333 68.1633333,7.86933333 68.354,8.008 C68.5446667,8.14666667 68.796,8.216 69.108,8.216 Z" id="Shape"></path>
                    <path d="M76.739,7.436 C76.427,7.436 76.1366667,7.40133333 75.868,7.332 L75.387,7.813 C75.5343333,7.891 75.7336667,7.956 75.985,8.008 C76.2363333,8.06 76.6436667,8.112 77.207,8.164 C78.065,8.242 78.689,8.44566667 79.079,8.775 C79.469,9.10433333 79.664,9.55933333 79.664,10.14 C79.664,10.5213333 79.56,10.8831667 79.352,11.2255 C79.144,11.5678333 78.8233333,11.8451667 78.39,12.0575 C77.9566667,12.2698333 77.402,12.376 76.726,12.376 C75.8073333,12.376 75.0663333,12.2048333 74.503,11.8625 C73.9396667,11.5201667 73.658,11.0066667 73.658,10.322 C73.658,9.74133333 73.9396667,9.23866667 74.503,8.814 C74.3296667,8.736 74.1801667,8.65366667 74.0545,8.567 C73.9288333,8.48033333 73.8183333,8.38933333 73.723,8.294 L73.723,7.995 L74.854,6.799 C74.3513333,6.357 74.1,5.78933333 74.1,5.096 C74.1,4.66266667 74.2061667,4.26833333 74.4185,3.913 C74.6308333,3.55766667 74.932,3.276 75.322,3.068 C75.712,2.86 76.1843333,2.756 76.739,2.756 C77.103,2.756 77.441,2.808 77.753,2.912 L80.197,2.912 L80.197,3.926 L79.092,4.004 C79.2653333,4.33333333 79.352,4.69733333 79.352,5.096 C79.352,5.52933333 79.248,5.92366667 79.04,6.279 C78.832,6.63433333 78.5308333,6.916 78.1365,7.124 C77.7421667,7.332 77.2763333,7.436 76.739,7.436 Z M76.739,6.162 C77.077,6.162 77.3565,6.071 77.5775,5.889 C77.7985,5.707 77.909,5.447 77.909,5.109 C77.909,4.771 77.7985,4.511 77.5775,4.329 C77.3565,4.147 77.077,4.056 76.739,4.056 C76.3836667,4.056 76.0976667,4.147 75.881,4.329 C75.6643333,4.511 75.556,4.771 75.556,5.109 C75.556,5.447 75.6643333,5.707 75.881,5.889 C76.0976667,6.071 76.3836667,6.162 76.739,6.162 Z M75.179,10.153 C75.179,10.4736667 75.3285,10.7141667 75.6275,10.8745 C75.9265,11.0348333 76.2926667,11.115 76.726,11.115 C77.142,11.115 77.48,11.0305 77.74,10.8615 C78,10.6925 78.13,10.465 78.13,10.179 C78.13,9.945 78.0455,9.75 77.8765,9.594 C77.7075,9.438 77.3716667,9.34266667 76.869,9.308 C76.5136667,9.282 76.1843333,9.243 75.881,9.191 C75.6296667,9.32966667 75.4498333,9.48133333 75.3415,9.646 C75.2331667,9.81066667 75.179,9.97966667 75.179,10.153 Z" id="Shape"></path>
                    <path d="M84.539,9.516 C83.889,9.516 83.3126667,9.37733333 82.81,9.1 C82.3073333,8.82266667 81.913,8.43266667 81.627,7.93 C81.341,7.42733333 81.198,6.84666667 81.198,6.188 C81.198,5.52066667 81.3388333,4.927 81.6205,4.407 C81.9021667,3.887 82.2921667,3.48183333 82.7905,3.1915 C83.2888333,2.90116667 83.876,2.756 84.552,2.756 C85.1846667,2.756 85.7436667,2.89466667 86.229,3.172 C86.7143333,3.44933333 87.0935,3.8285 87.3665,4.3095 C87.6395,4.7905 87.776,5.32566667 87.776,5.915 C87.776,6.01033333 87.7738333,6.11 87.7695,6.214 C87.7651667,6.318 87.7586667,6.42633333 87.75,6.539 L82.849,6.539 C82.8836667,7.04166667 83.0591667,7.436 83.3755,7.722 C83.6918333,8.008 84.0753333,8.151 84.526,8.151 C84.864,8.151 85.1478333,8.07516667 85.3775,7.9235 C85.6071667,7.77183333 85.7783333,7.57466667 85.891,7.332 L87.581,7.332 C87.4596667,7.73933333 87.2581667,8.10983333 86.9765,8.4435 C86.6948333,8.77716667 86.3481667,9.03933333 85.9365,9.23 C85.5248333,9.42066667 85.059,9.516 84.539,9.516 Z M84.552,4.108 C84.1446667,4.108 83.785,4.22283333 83.473,4.4525 C83.161,4.68216667 82.9616667,5.031 82.875,5.499 L86.086,5.499 C86.06,5.07433333 85.904,4.73633333 85.618,4.485 C85.332,4.23366667 84.9766667,4.108 84.552,4.108 Z" id="Shape"></path>
                    <path d="M89.18,9.36 L89.18,2.912 L90.662,2.912 L90.818,4.121 C91.052,3.705 91.3705,3.3735 91.7735,3.1265 C92.1765,2.8795 92.651,2.756 93.197,2.756 L93.197,4.511 L92.729,4.511 C92.365,4.511 92.04,4.56733333 91.754,4.68 C91.468,4.79266667 91.2448333,4.98766667 91.0845,5.265 C90.9241667,5.54233333 90.844,5.928 90.844,6.422 L90.844,9.36 L89.18,9.36 Z" id="Path"></path>
                </g>
                <g id="Group-5" transform="translate(0, 20.36)" stroke-linecap="round" stroke-width="1.5">
                    <line x1="23.5" y1="0.5" x2="25" y2="0.5" id="Line-2-Copy-4" stroke="#F56900"></line>
                    <line x1="0.5" y1="0.5" x2="20.5" y2="0.5" id="Line-2-Copy" stroke="#2997FF"></line>
                </g>
                <g id="Group-5-Copy" transform="translate(80.5, 20.86) scale(-1, 1) translate(-80.5, -20.86)translate(68, 20.36)" stroke-linecap="round" stroke-width="1.5">
                    <line x1="23.5" y1="0.5" x2="25" y2="0.5" id="Line-2-Copy-4" stroke="#F56900"></line>
                    <line x1="0.5" y1="0.5" x2="20.5" y2="0.5" id="Line-2-Copy" stroke="#2997FF"></line>
                </g>
                <g id="Portal" transform="translate(32.552, 16.44)" fill="#070A2C" fill-rule="nonzero">
                    <path d="M0,7.92 L0,0.22 L2.53,0.22 C3.13133333,0.22 3.62633333,0.319 4.015,0.517 C4.40366667,0.715 4.6915,0.982666667 4.8785,1.32 C5.0655,1.65733333 5.159,2.03866667 5.159,2.464 C5.159,2.882 5.06733333,3.25966667 4.884,3.597 C4.70066667,3.93433333 4.41466667,4.20383333 4.026,4.4055 C3.63733333,4.60716667 3.13866667,4.708 2.53,4.708 L0.924,4.708 L0.924,7.92 L0,7.92 Z M0.924,3.927 L2.508,3.927 C3.124,3.927 3.56216667,3.79683333 3.8225,3.5365 C4.08283333,3.27616667 4.213,2.91866667 4.213,2.464 C4.213,2.002 4.08283333,1.64083333 3.8225,1.3805 C3.56216667,1.12016667 3.124,0.99 2.508,0.99 L0.924,0.99 L0.924,3.927 Z" id="Shape"></path>
                    <path d="M8.8,8.052 C8.28666667,8.052 7.82466667,7.93466667 7.414,7.7 C7.00333333,7.46533333 6.67883333,7.1335 6.4405,6.7045 C6.20216667,6.2755 6.083,5.77133333 6.083,5.192 C6.083,4.61266667 6.204,4.1085 6.446,3.6795 C6.688,3.2505 7.01616667,2.91866667 7.4305,2.684 C7.84483333,2.44933333 8.30866667,2.332 8.822,2.332 C9.33533333,2.332 9.79733333,2.44933333 10.208,2.684 C10.6186667,2.91866667 10.9431667,3.2505 11.1815,3.6795 C11.4198333,4.1085 11.539,4.61266667 11.539,5.192 C11.539,5.77133333 11.418,6.2755 11.176,6.7045 C10.934,7.1335 10.6058333,7.46533333 10.1915,7.7 C9.77716667,7.93466667 9.31333333,8.052 8.8,8.052 Z M8.8,7.26 C9.11533333,7.26 9.40866667,7.183 9.68,7.029 C9.95133333,6.875 10.1713333,6.644 10.34,6.336 C10.5086667,6.028 10.593,5.64666667 10.593,5.192 C10.593,4.73733333 10.5105,4.356 10.3455,4.048 C10.1805,3.74 9.96233333,3.509 9.691,3.355 C9.41966667,3.201 9.13,3.124 8.822,3.124 C8.50666667,3.124 8.21333333,3.201 7.942,3.355 C7.67066667,3.509 7.45066667,3.74 7.282,4.048 C7.11333333,4.356 7.029,4.73733333 7.029,5.192 C7.029,5.64666667 7.11333333,6.028 7.282,6.336 C7.45066667,6.644 7.66883333,6.875 7.9365,7.029 C8.20416667,7.183 8.492,7.26 8.8,7.26 Z" id="Shape"></path>
                    <path d="M12.826,7.92 L12.826,2.464 L13.662,2.464 L13.739,3.509 C13.9076667,3.14966667 14.1643333,2.86366667 14.509,2.651 C14.8536667,2.43833333 15.279,2.332 15.785,2.332 L15.785,3.3 L15.532,3.3 C15.2093333,3.3 14.9123333,3.35683333 14.641,3.4705 C14.3696667,3.58416667 14.1533333,3.77666667 13.992,4.048 C13.8306667,4.31933333 13.75,4.69333333 13.75,5.17 L13.75,7.92 L12.826,7.92 Z" id="Path"></path>
                    <path d="M18.975,7.92 C18.4763333,7.92 18.084,7.799 17.798,7.557 C17.512,7.315 17.369,6.87866667 17.369,6.248 L17.369,3.245 L16.423,3.245 L16.423,2.464 L17.369,2.464 L17.49,1.155 L18.293,1.155 L18.293,2.464 L19.899,2.464 L19.899,3.245 L18.293,3.245 L18.293,6.248 C18.293,6.59266667 18.3626667,6.8255 18.502,6.9465 C18.6413333,7.0675 18.887,7.128 19.239,7.128 L19.811,7.128 L19.811,7.92 L18.975,7.92 Z" id="Path"></path>
                    <path d="M22.891,8.052 C22.4363333,8.052 22.0586667,7.975 21.758,7.821 C21.4573333,7.667 21.2336667,7.46166667 21.087,7.205 C20.9403333,6.94833333 20.867,6.66966667 20.867,6.369 C20.867,5.81166667 21.0796667,5.38266667 21.505,5.082 C21.9303333,4.78133333 22.5096667,4.631 23.243,4.631 L24.717,4.631 L24.717,4.565 C24.717,4.08833333 24.5923333,3.72716667 24.343,3.4815 C24.0936667,3.23583333 23.76,3.113 23.342,3.113 C22.9826667,3.113 22.6728333,3.20283333 22.4125,3.3825 C22.1521667,3.56216667 21.989,3.82433333 21.923,4.169 L20.977,4.169 C21.0136667,3.773 21.1475,3.43933333 21.3785,3.168 C21.6095,2.89666667 21.8973333,2.6895 22.242,2.5465 C22.5866667,2.4035 22.9533333,2.332 23.342,2.332 C24.1046667,2.332 24.6785,2.5355 25.0635,2.9425 C25.4485,3.3495 25.641,3.89033333 25.641,4.565 L25.641,7.92 L24.816,7.92 L24.761,6.941 C24.607,7.249 24.3815,7.51116667 24.0845,7.7275 C23.7875,7.94383333 23.3896667,8.052 22.891,8.052 Z M23.034,7.271 C23.386,7.271 23.6885,7.17933333 23.9415,6.996 C24.1945,6.81266667 24.387,6.57433333 24.519,6.281 C24.651,5.98766667 24.717,5.67966667 24.717,5.357 L24.717,5.346 L23.32,5.346 C22.7773333,5.346 22.3941667,5.4395 22.1705,5.6265 C21.9468333,5.8135 21.835,6.04633333 21.835,6.325 C21.835,6.611 21.9395,6.84016667 22.1485,7.0125 C22.3575,7.18483333 22.6526667,7.271 23.034,7.271 Z" id="Shape"></path>
                    <polygon id="Path" points="27.027 7.92 27.027 0 27.951 0 27.951 7.92"></polygon>
                </g>
            </g>
        </g>
    </g>
</svg>