<?xml version="1.0" encoding="UTF-8"?>
<svg width="26px" height="26px" viewBox="0 0 26 26" version="1.1" xmlns="http://www.w3.org/2000/svg" xmlns:xlink="http://www.w3.org/1999/xlink">
    <title>5200BC80-E952-4E3C-8040-B5CCCAA579A4</title>
    <g id="Page-1" stroke="none" stroke-width="1" fill="none" fill-rule="evenodd">
        <g id="Open-orders_V2.7-Copy-8" transform="translate(-698, -309)">
            <g id="Group-18" transform="translate(50, 209)">
                <g id="Group-11" transform="translate(475, 91)">
                    <g id="Group-17-Copy" transform="translate(164, 0)">
                        <g id="Group" transform="translate(9, 9)">
                            <polygon id="Path" points="0 0 26 0 26 26 0 26"></polygon>
                            <path d="M3.25,18.4166667 C3.25,17.8183582 3.73502485,17.3333333 4.33333333,17.3333333 L5.41666667,17.3333333 C6.01497515,17.3333333 6.5,17.8183582 6.5,18.4166667 L6.5,21.6666667 C6.5,22.2649751 6.01497515,22.75 5.41666667,22.75 L4.33333333,22.75 C3.73502485,22.75 3.25,22.2649751 3.25,21.6666667 L3.25,18.4166667 Z" id="Path" stroke="#10B759" stroke-width="1.5" stroke-linecap="round" stroke-linejoin="round"></path>
                            <path d="M6.5,21.6666667 C6.5,22.2649751 6.98502485,22.75 7.58333333,22.75 L11.6523333,22.75 C12.1309156,22.75 12.5528136,22.4360319 12.6901667,21.9775833 L13.9901667,18.7275833 C14.0876667,18.3993333 14.13425,18.0450833 13.9295,17.7699167 C13.7258333,17.49475 13.3423333,17.3333333 13,17.3333333 L10.8333333,17.3333333 L10.8333333,14.66075 C10.8330695,14.1358245 10.4893533,13.6728935 9.98694475,13.5207996 C9.48453622,13.3687057 8.94177558,13.5632739 8.65041667,13.9999167 L6.5,17.3333333 L6.5,21.6666667 L6.5,21.6666667 Z" id="Path" stroke="#10B759" stroke-width="1.5" stroke-linecap="round" stroke-linejoin="round"></path>
                            <path d="M15.1666667,3.25 L15.1666667,7.58333333 C15.1666667,8.18164181 15.6516915,8.66666667 16.25,8.66666667 L20.5833333,8.66666667" id="Path" stroke="#10B759" stroke-width="1.5" stroke-linecap="round" stroke-linejoin="round"></path>
                            <path d="M5.41666667,13.1083333 L5.41666667,5.41666667 C5.41666667,4.22004971 6.38671638,3.25 7.58333333,3.25 L15.1666667,3.25 L20.5833333,8.66666667 L20.5833333,20.5833333 C20.5833333,21.7799503 19.6132836,22.75 18.4166667,22.75 L15.925,22.75" id="Path" stroke="#10B759" stroke-width="1.5" stroke-linecap="round" stroke-linejoin="round"></path>
                        </g>
                    </g>
                </g>
            </g>
        </g>
    </g>
</svg>